# ProBuilder 4.4.0
# https://unity3d.com/unity/features/worldbuilding/probuilder
# 16/09/2020 20:13:14

mtllib ./Cross.mtl
o Cross

g Cube
v 0.5099955 -0.5 2.0002
v -0.4900045 -0.5 2.0002
v 0.5099955 0.5 2.0002
v -0.4900045 0.5 2.0002
v -2.010195 -0.5 0.5
v -2.010195 -0.5 -0.5
v -2.010195 0.5 0.5
v -2.010195 0.5 -0.5
v -0.4900045 -0.5 -2.0002
v 0.5099955 -0.5 -2.0002
v -0.4900045 0.5 -2.0002
v 0.5099955 0.5 -2.0002
v 2.010195 -0.5 -0.5
v 2.010195 -0.5 0.5
v 2.010195 0.5 -0.5
v 2.010195 0.5 0.5
v 0.5099955 0.5 0.5
v -0.4900045 0.5 0.5
v 0.5099955 0.5 -0.5
v -0.4900045 0.5 -0.5
v 0.5099955 -0.5 -0.5
v -0.4900045 -0.5 -0.5
v 0.5099955 -0.5 0.5
v -0.4900045 -0.5 0.5
v -1.510096 -0.5 0.5
v -1.510096 -0.5 -0.5
v -1.510096 0.5 0.5
v -1.510096 0.5 -0.5
v 0.5099955 -0.5 1.5001
v -0.4900045 -0.5 1.5001
v 0.5099955 0.5 1.5001
v -0.4900045 0.5 1.5001
v 1.510095 -0.5 -0.5
v 1.510095 -0.5 0.5
v 1.510095 0.5 -0.5
v 1.510095 0.5 0.5
v -0.4900045 -0.5 -1.5001
v 0.5099955 -0.5 -1.5001
v -0.4900045 0.5 -1.5001
v 0.5099955 0.5 -1.5001

vt 0.5099955 -0.5
vt -0.4900045 -0.5
vt 0.5099955 0.5
vt -0.4900045 0.5
vt 0.5 -0.5
vt -0.5 -0.5
vt 0.5 0.5
vt -0.5 0.5
vt 0.4900045 -0.5
vt -0.5099955 -0.5
vt 0.4900045 0.5
vt -0.5099955 0.5
vt -1.510096 0.5
vt -1.510096 -0.5
vt 1.510096 -0.5
vt 1.510096 0.5
vt 0.5099955 1.5001
vt -0.4900045 1.5001
vt -1.5001 0.5
vt -1.5001 -0.5
vt 1.5001 -0.5
vt 1.5001 0.5
vt 0.4900045 1.5001
vt -0.5099955 1.5001
vt -0.4900045 -1.5001
vt 0.5099955 -1.5001
vt -0.5099955 -1.5001
vt 0.4900045 -1.5001
vt -0.4900045 -2.0002
vt 0.5099955 -2.0002
vt -2.0002 0.5
vt -2.0002 -0.5
vt 2.0002 -0.5
vt 2.0002 0.5
vt -0.5099955 -2.0002
vt 0.4900045 -2.0002
vt -2.010195 0.5
vt -2.010195 -0.5
vt 2.010195 -0.5
vt 2.010195 0.5
vt 0.5099955 2.0002
vt -0.4900045 2.0002
vt 0.4900045 2.0002
vt -0.5099955 2.0002

vn 0 0 1
vn -1 0 0
vn 0 0 -1
vn 1 0 0
vn 0 1 0
vn 0 -1 0

usemtl ProBuilderDefault
f 3/3/1 4/4/1 2/2/1 1/1/1
f 7/7/2 8/8/2 6/6/2 5/5/2
f 11/11/3 12/12/3 10/10/3 9/9/3
f 15/7/4 16/8/4 14/6/4 13/5/4
f 19/10/5 20/9/5 18/11/5 17/12/5
f 23/3/6 24/4/6 22/2/6 21/1/6
f 25/13/6 26/14/6 22/2/6 24/4/6
f 27/13/1 25/14/1 24/2/1 18/4/1
f 26/15/3 28/16/3 20/11/3 22/9/3
f 28/15/5 27/16/5 18/11/5 20/9/5
f 29/17/6 30/18/6 24/4/6 23/3/6
f 31/19/4 29/20/4 23/6/4 17/8/4
f 30/21/2 32/22/2 18/7/2 24/5/2
f 32/23/5 31/24/5 17/12/5 18/11/5
f 33/15/6 34/16/6 23/3/6 21/1/6
f 35/13/3 33/14/3 21/10/3 19/12/3
f 34/15/1 36/16/1 17/3/1 23/1/1
f 36/13/5 35/14/5 19/10/5 17/12/5
f 37/25/6 38/26/6 21/1/6 22/2/6
f 39/19/2 37/20/2 22/6/2 20/8/2
f 38/21/4 40/22/4 19/7/4 21/5/4
f 40/27/5 39/28/5 20/9/5 19/10/5
f 9/29/6 10/30/6 38/26/6 37/25/6
f 11/31/2 9/32/2 37/20/2 39/19/2
f 10/33/4 12/34/4 40/22/4 38/21/4
f 12/35/5 11/36/5 39/28/5 40/27/5
f 5/37/6 6/38/6 26/14/6 25/13/6
f 7/37/1 5/38/1 25/14/1 27/13/1
f 6/39/3 8/40/3 28/16/3 26/15/3
f 8/39/5 7/40/5 27/16/5 28/15/5
f 1/41/6 2/42/6 30/18/6 29/17/6
f 3/31/4 1/32/4 29/20/4 31/19/4
f 2/33/2 4/34/2 32/22/2 30/21/2
f 4/43/5 3/44/5 31/24/5 32/23/5
f 13/39/6 14/40/6 34/16/6 33/15/6
f 15/37/3 13/38/3 33/14/3 35/13/3
f 14/39/1 16/40/1 36/16/1 34/15/1
f 16/37/5 15/38/5 35/14/5 36/13/5

